# xmcd CD database file
#
# Track frame offsets:
#	150
#	18320
#	36360
#	54507
#
# Disc length: 966 seconds
#
# Revision: 1
# Processed by: cddbd v1.5.2PL0 Copyright (c) Steve Scherf et al.
# Submitted via: CDex 1.51
#
DISCID=2b03c404
DTITLE=舟木一夫 - 燃えよドラゴンズ！’99
DYEAR=1999
DGENRE=JPop
TTITLE0=燃えよドラゴンズ！’99
TTITLE1=ROCK’N ROLLふるさと
TTITLE2=燃えよドラゴンズ！’99／韓国三銃士
TTITLE3=燃えよドラゴンズ！’99(オリジナル・カラオケ)
EXTD=YEAR: 1999
EXTT0=
EXTT1=
EXTT2=
EXTT3=
PLAYORDER=
